<!-- Willis Advocacy Group — Horizontal Logo (Light Backgrounds) -->
<!-- Use: hero section, about section, print materials, cream/white backgrounds -->
<svg xmlns="http://www.w3.org/2000/svg" viewBox="0 0 340 80" role="img" aria-label="Willis Advocacy Group — People Over Profits.">
  <title>Willis Advocacy Group</title>
  <defs>
    <style>
      @import url('https://fonts.googleapis.com/css2?family=Playfair+Display:wght@700&amp;family=JetBrains+Mono:wght@400;600&amp;display=swap');
      .wag-name { font-family: 'Playfair Display', Georgia, 'Times New Roman', serif; }
      .wag-tagline { font-family: 'JetBrains Mono', 'Courier New', Courier, monospace; }
      .wag-sub { font-family: 'JetBrains Mono', 'Courier New', Courier, monospace; }
    </style>
    <linearGradient id="shieldGradL" x1="0%" y1="0%" x2="100%" y2="100%">
      <stop offset="0%" style="stop-color:#0C1B2E"/>
      <stop offset="100%" style="stop-color:#14304e"/>
    </linearGradient>
  </defs>

  <!-- Shield icon: nested SVG, shield viewBox 100x115 scaled to 53x61 -->
  <svg x="8" y="9" width="53" height="61" viewBox="0 0 100 115">
    <path d="M 5,12 L 95,12 L 95,62 C 95,90 72,108 50,113 C 28,108 5,90 5,62 Z"
          fill="url(#shieldGradL)"/>
    <path d="M 5,12 L 95,12 L 95,62 C 95,90 72,108 50,113 C 28,108 5,90 5,62 Z"
          fill="none" stroke="#C8972A" stroke-width="2.5"/>
    <path d="M 10,17 L 90,17 L 90,62 C 90,86 70,103 50,108 C 30,103 10,86 10,62 Z"
          fill="none" stroke="#0D7377" stroke-width="0.8" opacity="0.6"/>
    <polyline points="24,28 33,70 50,46 67,70 76,28"
              fill="none" stroke="#C8972A" stroke-width="5.5"
              stroke-linejoin="round" stroke-linecap="round"/>
    <line x1="27" y1="80" x2="73" y2="80"
          stroke="#C8972A" stroke-width="1.2" opacity="0.65"/>
    <circle cx="50" cy="91" r="2.8" fill="#0D7377"/>
  </svg>

  <!-- Thin gold vertical separator -->
  <line x1="73" y1="14" x2="73" y2="66" stroke="#C8972A" stroke-width="1" opacity="0.5"/>

  <!-- Brand name -->
  <text x="83" y="38"
        class="wag-name"
        font-size="22" font-weight="700"
        fill="#0C1B2E"
        letter-spacing="0.3">Willis Advocacy Group</text>

  <!-- Tagline -->
  <text x="83" y="56"
        class="wag-tagline"
        font-size="10.5" font-weight="400"
        fill="#0D7377"
        letter-spacing="0.12em">People Over Profits.</text>

  <!-- Licensed line -->
  <text x="83" y="69"
        class="wag-sub"
        font-size="7.5" font-weight="400"
        fill="#5a7080"
        letter-spacing="0.08em">Licensed Medicare &amp; Life Insurance Broker · Webster, MA</text>

</svg>
